<?xml version="1.0" encoding="UTF-8" standalone="no"?>
<svg width="361px" height="149px" viewBox="0 0 361 149" version="1.1" xmlns="http://www.w3.org/2000/svg" xmlns:xlink="http://www.w3.org/1999/xlink" xmlns:sketch="http://www.bohemiancoding.com/sketch/ns">
    <title>logo</title>
    <description>Created with Sketch (http://www.bohemiancoding.com/sketch)</description>
    <defs></defs>
    <g id="Page-1" stroke="none" stroke-width="1" fill="none" fill-rule="evenodd" sketch:type="MSPage">
        <g id="AngularJS-Shield" sketch:type="MSLayerGroup">
            <path d="M69.2777648,0 L0,24.5052017 L10.9472219,115.735315 L69.3511689,148 L128.056378,115.298023 L139,24.0716217 L69.2777648,0 Z" id="Fill-1" fill="#B3B3B3" sketch:type="MSShapeGroup"></path>
            <path d="M133,29.4976647 L70,8 L70,140 L122.79692,110.760948 L133,29.4976647 Z" id="Fill-3" fill="#A51C25" sketch:type="MSShapeGroup"></path>
            <path d="M8,29.8881018 L17.4813522,111.149286 L70,140 L70,8 L8,29.8881018 Z" id="Fill-4" fill="#D91B2A" sketch:type="MSShapeGroup"></path>
            <path d="M83,74 L68.6412028,44 L56,74 L83,74 Z M88.8355622,87.0608139 L50.5176407,87.0608139 L41.9452739,108.702785 L26,109 L68.7549151,13 L113,109 L98.2210366,109 L88.8355622,87.0608139 Z" id="Fill-5" fill="#F2F2F2" sketch:type="MSShapeGroup"></path>
            <path d="M70,13 L70.1148687,43.6881971 L84.6445877,74.0886985 L70.0327306,74.0886985 L70,86.8185957 L90.2048864,86.8382881 L99.6483283,108.714975 L115,109 L70,13 Z" id="Fill-6" fill="#B3B3B3" sketch:type="MSShapeGroup"></path>
        </g>
        <path d="M320.367817,99.2901627 C317.419866,104.722279 315.905502,107.922282 312.662567,110.5 C314.162567,107.7 314.962567,104.3 314.962567,100.9 C314.962567,92.7 309.362567,80.6 307.462567,72.7 C311.562567,65.9 313.662567,60.3 313.662567,56.6 C313.662567,54 312.562567,52.4 310.162567,52.4 C306.362567,52.4 303.262567,57.9 303.262567,64.7 C303.262567,67.2 303.662567,70 304.762567,72.7 C301.762567,79.8 295.862567,93 290.562567,101 C288.662567,101.5 287.262567,103.6 286.962567,106 C285.562567,108 283.962567,109.3 281.762567,110.6 C283.562567,107.7 284.362567,104 284.362567,100.4 C284.362567,92.4 278.862567,82.8 276.662567,75.7 C280.662567,69.2 282.662567,63.9 282.662567,60.4 C282.662567,57.8 281.362567,56.2 278.962567,56.2 C275.162567,56.2 271.962567,61.7 271.962567,68.5 C271.962567,70.9 272.462567,73.5 273.362567,76 C271.15192,80.8024387 267.662878,87.929233 264.002839,94.2353715 C263.597214,94.5051396 263.159043,95.0018704 262.841711,95.7 C262.4388,96.5315407 262.047646,97.3307462 261.667874,98.0970495 C261.298429,98.6807106 260.929621,99.2494191 260.562567,99.8 C256.862567,99.4 254.962567,103 254.962567,106.2 C254.962567,107.103847 255.100851,108.039605 255.400119,108.963209 C254.454455,110.109925 253.642416,110.7 252.941711,110.7 C252.041711,110.7 251.541711,109.7 251.541711,108.2 C251.541711,103.4 255.041711,92.6 257.741711,79.9 C257.841711,79.4 257.841711,78.9 257.841711,78.4 C257.841711,74.7 254.841711,72.6 252.341711,72.6 L251.741711,72.6 C251.541711,69.5 249.041711,65.2 245.041711,65.2 C235.449606,65.2 227.735934,80.9231899 225.440492,94.9607396 L225.440492,94.9607396 C225.295999,95.1607451 225.154837,95.4052412 225.020856,95.7 C221.520856,102.7 215.320856,110.5 210.020856,110.5 C207.220856,110.5 206.020856,108.5 206.020856,104.2 C206.020856,101.1 206.520856,96.6 207.320856,91.5 C219.420856,92.7 227.020856,66.8 227.020856,53 C227.020856,46.3 225.220856,44.4 222.620856,42.9 C221.920856,41.9 220.420856,40.9 218.620856,40.9 C209.520856,40.9 203.620856,62 199.920856,82 C199.030512,86.5789089 198.342391,91.0364844 197.959376,95.1412371 C197.839057,95.3134772 197.719529,95.5007857 197.6,95.7 C193.6,102.5 188.2,110.3 180.1,110.3 C173.2,110.3 170.5,104 170.5,95.5 C170.5,77.4 182.6,49.1 193.1,48.9 C193.6,49.9 193.8,51.1 193.8,52.3 C193.8,60.2 185.1,72.4 185.1,79.9 C185.1,81.9 187.5,83 190,83 C192.5,83 195,81.8 195.1,79.3 C195.2,74.1 199.1,64.1 199.1,56.4 C199.1,52.2 198,48.7 194.5,47 C193.7,46 191.8,45.3 189.8,45.3 C174.4,45.3 161.5,73.8 161.5,94.8 C161.5,107.2 166,117 176.9,117 C187.032638,117 193.960166,108.052402 197.62802,100.906223 L197.62802,100.906223 C197.623262,101.207274 197.620856,101.505242 197.620856,101.8 C197.620856,110.8 199.920856,116.9 206.720856,116.9 C213.732447,116.9 220.744038,108.591048 224.774937,101.348773 C224.752878,101.907669 224.741711,102.45853 224.741711,103 C224.741711,110.8 227.041711,116.6 232.441711,116.6 C235.641711,116.6 239.441711,112.3 242.741711,105.5 C242.641711,106.2 242.641711,106.9 242.641711,107.4 C242.641711,114.9 246.341711,116.6 249.441711,116.6 C252.152534,116.6 254.689838,114.56734 256.9009,111.780514 L256.9009,111.780514 C259.060449,114.550816 263.185276,116.7 270.062567,116.7 L270.762567,116.7 C277.962567,116.5 283.462567,114.5 287.362567,110.1 C288.662567,113.8 292.562567,117.2 300.662567,117.2 C309.990451,117.2 315.501444,113.173965 319.804278,106.104894 C319.805314,112.402175 321.805832,116.6 327.804278,116.6 C332.004278,116.6 335.404278,113.5 338.004278,108.1 C337.404278,111.6 336.904278,114.9 336.504278,117.9 C326.404278,124.1 315.804278,128.2 315.804278,139.2 C315.804278,144.7 321.104278,149 326.004278,149 C333.904278,149 341.404278,140.3 345.904278,116.6 C351.004278,112.1 356.004278,106 359.704278,96.7 C360.004278,95.9 360.104278,95.3 360.104278,94.9 C360.104278,94.2 359.904278,93.9 359.504278,93.9 C359.004278,93.9 358.204278,94.6 357.704278,95.7 C354.704278,101.9 351.004278,106.5 347.004278,110.2 C353.404278,73.5 355.004278,72.4 355.004278,69.7 C355.004278,67.4 352.204278,65.8 349.704278,65.8 C348.004278,65.8 346.404278,66.6 346.004278,68.3 C346.004278,68.3 344.804278,73.6 343.204278,81.1 C338.804278,98.2 336.804278,109.8 331.404278,109.8 C329.904278,109.8 329.304278,108.4 329.304278,106 C329.304278,102.1 331.404278,92.7 333.404278,83.9 C334.604278,78.5 336.204278,73.4 336.204278,69.9 C336.204278,67.4 333.204278,65.5 330.604278,65.5 C328.804278,65.5 327.304278,66.3 327.004278,68.3 C325.255432,78.0776378 321.737228,89.8142075 320.367817,99.2901627 L320.367817,99.2901627 Z M221.120856,44.9 C221.320856,46.1 221.420856,47.6 221.420856,49.2 C221.420856,60.9 215.820856,82.5 207.720856,89.1 C210.820856,70.8 217.520856,46 221.120856,44.9 Z M235.441711,109.8 C234.241711,109.8 233.741711,107.9 233.741711,104.9 C233.741711,94.4 239.841711,71 246.541711,71 C248.941711,71 249.241711,73.1 249.241711,74.8 L246.041711,89.2 C243.541711,100.3 239.141711,109.8 235.441711,109.8 Z M304.962567,79.4 C305.162567,86.5 305.462567,95.3 305.462567,98.9 C305.462567,111 301.662567,114.9 298.462567,114.9 C296.462567,114.9 295.862567,112.7 295.862567,109.5 C295.862567,104.1 295.462567,102.5 293.462567,101.4 C296.562567,96.3 301.762567,87.6 304.962567,79.4 Z M273.862567,83 C274.262567,88.7 274.862567,94.9 274.862567,98.4 C274.862567,111 270.862567,114.4 267.562567,114.4 C265.162567,114.4 264.062567,112.6 264.062567,109.3 C264.062567,104.2 264.062567,102.4 263.162567,101.2 C266.062567,97 270.762567,90.2 273.862567,83 Z M322.704278,145.8 C321.204278,144.9 320.004278,143.6 320.004278,141.4 C320.004278,133.4 328.604278,128.6 335.704278,124.1 C334.904278,130.7 333.104278,145.9 323.704278,145.9 C323.304278,145.9 323.004278,145.9 322.704278,145.8 Z" id="Classy" fill="#222222" sketch:type="MSShapeGroup"></path>
    </g>
</svg>